<?xml version="1.0" encoding="UTF-8" standalone="no"?>
<!-- Created with Inkscape (http://www.inkscape.org/) -->

<svg
   xmlns:dc="http://purl.org/dc/elements/1.1/"
   xmlns:cc="http://creativecommons.org/ns#"
   xmlns:rdf="http://www.w3.org/1999/02/22-rdf-syntax-ns#"
   xmlns:svg="http://www.w3.org/2000/svg"
   xmlns="http://www.w3.org/2000/svg"
   xmlns:sodipodi="http://sodipodi.sourceforge.net/DTD/sodipodi-0.dtd"
   xmlns:inkscape="http://www.inkscape.org/namespaces/inkscape"
   width="289"
   height="72.563591"
   viewBox="0 0 76.464583 19.199116"
   version="1.1"
   id="svg483"
   inkscape:version="0.92.0 r15299"
   sodipodi:docname="egnyte.svg">
  <defs
     id="defs477" />
  <sodipodi:namedview
     id="base"
     pagecolor="#ffffff"
     bordercolor="#666666"
     borderopacity="1.0"
     inkscape:pageopacity="0.0"
     inkscape:pageshadow="2"
     inkscape:zoom="3.1254356"
     inkscape:cx="143.5"
     inkscape:cy="35.281797"
     inkscape:document-units="mm"
     inkscape:current-layer="layer1"
     showgrid="false"
     fit-margin-top="0"
     fit-margin-left="0"
     fit-margin-right="0"
     fit-margin-bottom="0"
     units="px"
     inkscape:window-width="1280"
     inkscape:window-height="744"
     inkscape:window-x="-4"
     inkscape:window-y="-4"
     inkscape:window-maximized="1" />
  <metadata
     id="metadata480">
    <rdf:RDF>
      <cc:Work
         rdf:about="">
        <dc:format>image/svg+xml</dc:format>
        <dc:type
           rdf:resource="http://purl.org/dc/dcmitype/StillImage" />
        <dc:title></dc:title>
      </cc:Work>
    </rdf:RDF>
  </metadata>
  <g
     inkscape:label="Layer 1"
     inkscape:groupmode="layer"
     id="layer1"
     transform="translate(-2.8537205,-213.80848)">
    <g
       transform="translate(7.8611892,-227.63432)"
       id="g461">
      <path
         id="path426"
         d="m 4.3141198,455.80856 h -5.9158187 v -1.8307 h 5.2585143 c 0.132715,0 0.2401623,-0.10825 0.2401623,-0.24197 v -2.04083 c 0,-0.1337 -0.1074473,-0.24196 -0.2401623,-0.24196 h -5.2585143 v -1.74792 h 5.8336656 c 0.132715,0 0.2401623,-0.10824 0.2401623,-0.24196 V 447.225 c 0,-0.13372 -0.1074473,-0.24196 -0.2401623,-0.24196 H -4.502713 c -0.1327267,0 -0.2401721,0.10824 -0.2401721,0.24196 v 11.06691 c 0,0.13372 0.1074454,0.24199 0.2401721,0.24199 h 8.8168328 c 0.1327414,0 0.2401887,-0.10827 0.2401887,-0.24199 v -2.24139 c 0,-0.13372 -0.1074473,-0.24196 -0.2401887,-0.24196 z m 12.5268832,-4.02434 h -4.775015 c -0.142214,0 -0.255958,0.11462 -0.255958,0.25789 v 1.8275 c 0,0.14328 0.113744,0.25789 0.255958,0.25789 h 2.003531 v 1.38176 c 0,0.0128 -0.0063,0.0255 -0.01894,0.0319 -0.470879,0.30565 -1.055503,0.46802 -1.813931,0.46802 -1.817105,0 -3.1095947,-1.3372 -3.1095947,-3.20291 v -0.0319 c 0,-1.76699 1.2766937,-3.16788 2.9294667,-3.16788 1.046004,0 1.826577,0.34068 2.588154,0.94242 0.101124,0.0796 0.246512,0.0605 0.328665,-0.0382 l 1.561122,-1.89119 c 0.08533,-0.10189 0.07268,-0.25471 -0.03159,-0.34067 -1.172421,-0.9615 -2.553414,-1.52824 -4.46532,-1.52824 -3.5520044,0 -6.1717763,2.63938 -6.1717763,6.00787 v 0.0318 c 0,3.49901 2.6671587,5.97284 6.2381343,5.97284 2.028825,0 3.681597,-0.73867 4.88561,-1.70972 0.05689,-0.0446 0.08848,-0.11461 0.08848,-0.18785 v -4.84256 c 0.0032,-0.13055 -0.104272,-0.23879 -0.236987,-0.23879 z m 12.586784,-4.80118 h -2.663825 c -0.13282,0 -0.240241,0.10824 -0.240241,0.24196 v 5.86457 l -4.642379,-6.01422 c -0.04419,-0.0573 -0.113771,-0.0923 -0.189521,-0.0923 h -2.607125 c -0.132715,0 -0.240162,0.10824 -0.240162,0.24196 v 11.06691 c 0,0.13372 0.107447,0.24199 0.240162,0.24199 h 2.664089 c 0.132557,0 0.239977,-0.10827 0.239977,-0.24199 v -6.09698 l 4.822561,6.24346 c 0.04418,0.0573 0.113771,0.0923 0.189442,0.0923 h 2.427022 c 0.132821,0 0.240242,-0.10824 0.240242,-0.24196 V 447.225 c -0.0032,-0.13372 -0.110596,-0.24196 -0.240242,-0.24196 z m 30.324954,0 H 50.18382 c -0.13282,0 -0.240241,0.10824 -0.240241,0.24196 v 2.32101 c 0,0.13372 0.107421,0.24196 0.240241,0.24196 h 3.198019 v 8.50394 c 0,0.13372 0.107421,0.24199 0.240242,0.24199 h 2.695575 c 0.132821,0 0.240241,-0.10827 0.240241,-0.24199 v -8.47211 c 0,-0.0191 0.01588,-0.0318 0.03149,-0.0318 h 3.163358 c 0.132821,0 0.240242,-0.10824 0.240242,-0.24196 V 447.225 c 0,-0.13372 -0.107421,-0.24196 -0.240242,-0.24196 z m 11.199548,8.82552 H 65.03647 v -1.8307 h 5.258594 c 0.132821,0 0.240242,-0.10825 0.240242,-0.24197 v -2.04083 c 0,-0.1337 -0.107421,-0.24196 -0.240242,-0.24196 H 65.03647 v -1.74792 h 5.833798 c 0.132556,0 0.239977,-0.10824 0.239977,-0.24196 V 447.225 c 0,-0.13372 -0.107421,-0.24196 -0.239977,-0.24196 h -8.734689 c -0.132821,0 -0.240242,0.10824 -0.240242,0.24196 v 11.06691 c 0,0.13372 0.107421,0.24199 0.240242,0.24199 h 8.81671 c 0.132821,0 0.240242,-0.10827 0.240242,-0.24199 v -2.24139 c -0.0032,-0.13372 -0.110596,-0.24196 -0.240242,-0.24196 z"
         inkscape:connector-curvature="0"
         style="clip-rule:evenodd;fill:#4b4f54;fill-rule:evenodd;stroke-width:0.26458332" />
      <path
         id="path428"
         d="m 40.459854,447.13578 h -1.317625 c -0.08864,0 -0.161131,-0.0732 -0.161131,-0.16237 v -5.10366 c 0,-0.0891 0.0725,-0.16237 0.161131,-0.16237 h 1.317625 c 0.08863,0 0.161396,0.0732 0.161396,0.16237 v 5.10366 c 0,0.0891 -0.07276,0.16237 -0.161396,0.16237 z"
         inkscape:connector-curvature="0"
         style="clip-rule:evenodd;fill:#32bdb5;fill-rule:evenodd;stroke-width:0.26458332" />
      <path
         id="path430"
         d="m 43.231364,454.27075 0.65749,-1.14938 c 0.04418,-0.0764 0.142081,-0.10504 0.221192,-0.0605 l 4.386262,2.55024 c 0.07567,0.0446 0.104246,0.14327 0.06006,0.22286 l -0.657489,1.14935 c -0.04419,0.0764 -0.142081,0.10506 -0.221192,0.0605 l -4.386262,-2.55024 c -0.07885,-0.0478 -0.104246,-0.14645 -0.06006,-0.22286 z"
         inkscape:connector-curvature="0"
         style="clip-rule:evenodd;fill:#32bdb5;fill-rule:evenodd;stroke-width:0.26458332" />
      <path
         id="path432"
         d="m 35.713494,453.12129 0.657225,1.14935 c 0.04418,0.0764 0.01905,0.17831 -0.06006,0.22289 l -4.386262,2.55021 c -0.07594,0.0446 -0.177007,0.0191 -0.221192,-0.0605 l -0.657225,-1.14935 c -0.04445,-0.0764 -0.01905,-0.17831 0.06006,-0.22286 l 4.386263,-2.55024 c 0.07567,-0.0446 0.177006,-0.0191 0.221191,0.0605 z"
         inkscape:connector-curvature="0"
         style="clip-rule:evenodd;fill:#32bdb5;fill-rule:evenodd;stroke-width:0.26458332" />
      <path
         id="path434"
         d="m 48.10446,448.26293 -1.362075,-2.37511 c -0.08202,-0.14009 -0.259027,-0.19103 -0.401373,-0.10826 l -6.541558,3.80465 -6.541558,-3.80465 c -0.138907,-0.0828 -0.319088,-0.0318 -0.401109,0.10826 l -1.362075,2.37511 c -0.08228,0.1401 -0.03175,0.32158 0.107421,0.40434 l 6.541558,3.80466 v 7.60931 c 0,0.16237 0.129382,0.29609 0.293688,0.29609 h 2.720975 c 0.161131,0 0.293952,-0.13054 0.293952,-0.29609 v -7.60931 l 6.541558,-3.80466 c 0.142081,-0.0828 0.189442,-0.26424 0.110596,-0.40434 z"
         inkscape:connector-curvature="0"
         style="clip-rule:evenodd;fill:#4b4f54;fill-rule:evenodd;stroke-width:0.26458332" />
    </g>
  </g>
</svg>
