<svg width="48" height="48" viewBox="0 0 48 48" fill="none" xmlns="http://www.w3.org/2000/svg">
<path d="M24 33C22.4062 33 20.8125 32.5312 19.5 31.5L0 16.3125V37.5C0 40.0312 1.96875 42 4.5 42H43.5C45.9375 42 48 40.0312 48 37.5V16.3125L28.4062 31.5C27.0938 32.5312 25.5 33 24 33ZM1.5 13.6875L21.375 29.1562C22.875 30.2812 25.0312 30.2812 26.5312 29.1562L46.4062 13.6875C47.3438 12.9375 48 11.7188 48 10.5C48 8.0625 45.9375 6 43.5 6H4.5C1.96875 6 0 8.0625 0 10.5C0 11.7188 0.5625 12.9375 1.5 13.6875Z" fill="#00A078"/>
</svg>
