<svg width="48" height="48" viewBox="0 0 48 48" fill="none" xmlns="http://www.w3.org/2000/svg">
<path d="M42 3H5.90625C4.3125 3 3 4.40625 3 6.09375V42C3 43.6875 4.3125 45 5.90625 45H42C43.5938 45 45 43.6875 45 42V6.09375C45 4.40625 43.5938 3 42 3ZM15.6562 39H9.46875V19.0312H15.6562V39ZM12.5625 16.2188C10.5 16.2188 8.90625 14.625 8.90625 12.6562C8.90625 10.6875 10.5 9 12.5625 9C14.5312 9 16.125 10.6875 16.125 12.6562C16.125 14.625 14.5312 16.2188 12.5625 16.2188ZM39 39H32.7188V29.25C32.7188 27 32.7188 24 29.5312 24C26.25 24 25.7812 26.5312 25.7812 29.1562V39H19.5938V19.0312H25.5V21.75H25.5938C26.4375 20.1562 28.5 18.4688 31.5 18.4688C37.7812 18.4688 39 22.6875 39 28.0312V39Z" fill="#00A078"/>
</svg>
