<svg width="48" height="48" viewBox="0 0 48 48" fill="none" xmlns="http://www.w3.org/2000/svg">
<g clip-path="url(#clip0_1076_992)">
<path d="M21.75 46.875C16.875 40.7812 6 26.25 6 18C6 8.0625 13.9688 0 24 0C33.9375 0 42 8.0625 42 18C42 26.25 31.0312 40.7812 26.1562 46.875C25.0312 48.2812 22.875 48.2812 21.75 46.875ZM24 24C27.2812 24 30 21.375 30 18C30 14.7188 27.2812 12 24 12C20.625 12 18 14.7188 18 18C18 21.375 20.625 24 24 24Z" fill="#00A078"/>
</g>
<defs>
<clipPath id="clip0_1076_992">
<rect width="48" height="48" fill="white"/>
</clipPath>
</defs>
</svg>
