<svg width="619" height="192" viewBox="0 0 619 192" fill="none" xmlns="http://www.w3.org/2000/svg">
<path d="M364.187 33.953V83.5201H352.112V53.794L341.027 83.5201H331.283L320.127 53.7234V83.5201H308.053V33.953H322.316L336.226 68.2687L349.994 33.953H364.187Z" fill="black"/>
<path d="M370.468 63.7497C370.468 59.7015 371.222 56.1476 372.728 53.0879C374.281 50.0282 376.376 47.6746 379.012 46.027C381.648 44.3795 384.59 43.5557 387.838 43.5557C390.615 43.5557 393.04 44.1206 395.111 45.2503C397.229 46.3801 398.853 47.8629 399.983 49.6987V44.1206H412.057V83.5201H399.983V77.942C398.806 79.7778 397.158 81.2606 395.04 82.3904C392.969 83.5201 390.545 84.085 387.768 84.085C384.567 84.085 381.648 83.2612 379.012 81.6137C376.376 79.9191 374.281 77.5419 372.728 74.4822C371.222 71.3754 370.468 67.798 370.468 63.7497ZM399.983 63.8203C399.983 60.8077 399.135 58.4306 397.441 56.6889C395.793 54.9472 393.769 54.0764 391.369 54.0764C388.968 54.0764 386.92 54.9472 385.226 56.6889C383.578 58.3835 382.754 60.7371 382.754 63.7497C382.754 66.7624 383.578 69.163 385.226 70.9518C386.92 72.6935 388.968 73.5643 391.369 73.5643C393.769 73.5643 395.793 72.6935 397.441 70.9518C399.135 69.2101 399.983 66.833 399.983 63.8203Z" fill="black"/>
<path d="M418.391 63.8203C418.391 59.7251 419.215 56.1476 420.862 53.0879C422.557 50.0282 424.887 47.6746 427.853 46.027C430.865 44.3795 434.302 43.5557 438.161 43.5557C443.104 43.5557 447.223 44.8502 450.518 47.4392C453.86 50.0282 456.049 53.6763 457.085 58.3835H444.234C443.151 55.3709 441.056 53.8646 437.95 53.8646C435.737 53.8646 433.972 54.7354 432.654 56.4771C431.336 58.1717 430.677 60.6194 430.677 63.8203C430.677 67.0213 431.336 69.4926 432.654 71.2342C433.972 72.9288 435.737 73.7761 437.95 73.7761C441.056 73.7761 443.151 72.2698 444.234 69.2572H457.085C456.049 73.8703 453.86 77.4948 450.518 80.1309C447.176 82.7669 443.057 84.085 438.161 84.085C434.302 84.085 430.865 83.2612 427.853 81.6137C424.887 79.9661 422.557 77.6125 420.862 74.5528C419.215 71.4931 418.391 67.9156 418.391 63.8203Z" fill="black"/>
<path d="M469.615 40.0253C467.497 40.0253 465.755 39.4134 464.39 38.1895C463.072 36.9186 462.413 35.3652 462.413 33.5294C462.413 31.6465 463.072 30.0931 464.39 28.8692C465.755 27.5982 467.497 26.9628 469.615 26.9628C471.687 26.9628 473.381 27.5982 474.699 28.8692C476.064 30.0931 476.747 31.6465 476.747 33.5294C476.747 35.3652 476.064 36.9186 474.699 38.1895C473.381 39.4134 471.687 40.0253 469.615 40.0253ZM475.617 44.1206V83.5201H463.543V44.1206H475.617Z" fill="black"/>
<path d="M521.507 63.1849C521.507 64.3146 521.436 65.4914 521.295 66.7153H493.97C494.158 69.1631 494.935 71.0459 496.3 72.364C497.712 73.6349 499.43 74.2704 501.454 74.2704C504.467 74.2704 506.562 72.9994 507.738 70.4575H520.589C519.93 73.0465 518.73 75.3766 516.988 77.4478C515.293 79.5189 513.152 81.1429 510.563 82.3197C507.974 83.4966 505.079 84.085 501.878 84.085C498.018 84.085 494.582 83.2612 491.569 81.6137C488.556 79.9661 486.203 77.6125 484.508 74.5528C482.814 71.4931 481.966 67.9156 481.966 63.8203C481.966 59.7251 482.79 56.1476 484.438 53.0879C486.132 50.0282 488.486 47.6746 491.498 46.027C494.511 44.3795 497.971 43.5557 501.878 43.5557C505.691 43.5557 509.08 44.356 512.045 45.9564C515.011 47.5569 517.318 49.8399 518.965 52.8054C520.66 55.771 521.507 59.2308 521.507 63.1849ZM509.151 60.0075C509.151 57.9363 508.444 56.2888 507.032 55.0649C505.62 53.841 503.855 53.2291 501.737 53.2291C499.713 53.2291 497.994 53.8175 496.582 54.9943C495.217 56.1711 494.37 57.8422 494.04 60.0075H509.151Z" fill="black"/>
<path d="M533.878 40.0253C531.76 40.0253 530.018 39.4134 528.653 38.1895C527.335 36.9186 526.676 35.3652 526.676 33.5294C526.676 31.6465 527.335 30.0931 528.653 28.8692C530.018 27.5982 531.76 26.9628 533.878 26.9628C535.95 26.9628 537.644 27.5982 538.962 28.8692C540.327 30.0931 541.01 31.6465 541.01 33.5294C541.01 35.3652 540.327 36.9186 538.962 38.1895C537.644 39.4134 535.95 40.0253 533.878 40.0253ZM539.951 88.6039C539.951 93.4523 538.727 96.9357 536.279 99.0539C533.831 101.219 530.419 102.302 526.041 102.302H521.31V92.0637H524.205C525.523 92.0637 526.464 91.8048 527.029 91.287C527.594 90.7692 527.877 89.9219 527.877 88.7451V44.1206H539.951V88.6039Z" fill="black"/>
<path d="M325.987 162.495C322.363 162.495 319.115 161.906 316.243 160.73C313.372 159.553 311.065 157.811 309.324 155.505C307.629 153.198 306.735 150.421 306.641 147.173H319.491C319.68 149.009 320.315 150.421 321.398 151.409C322.481 152.351 323.893 152.822 325.634 152.822C327.423 152.822 328.835 152.421 329.871 151.621C330.906 150.774 331.424 149.621 331.424 148.161C331.424 146.937 331.001 145.925 330.153 145.125C329.353 144.325 328.341 143.666 327.117 143.148C325.94 142.63 324.246 142.042 322.033 141.383C318.832 140.394 316.22 139.406 314.196 138.417C312.172 137.429 310.43 135.97 308.971 134.04C307.512 132.11 306.782 129.591 306.782 126.485C306.782 121.872 308.453 118.27 311.795 115.681C315.137 113.045 319.491 111.727 324.858 111.727C330.318 111.727 334.719 113.045 338.061 115.681C341.404 118.27 343.192 121.895 343.428 126.555H330.365C330.271 124.955 329.683 123.707 328.6 122.813C327.517 121.871 326.129 121.401 324.434 121.401C322.975 121.401 321.798 121.801 320.904 122.601C320.009 123.354 319.562 124.46 319.562 125.92C319.562 127.52 320.315 128.768 321.821 129.662C323.328 130.556 325.681 131.521 328.882 132.557C332.083 133.64 334.672 134.675 336.649 135.664C338.673 136.652 340.415 138.088 341.874 139.971C343.334 141.854 344.063 144.278 344.063 147.243C344.063 150.068 343.334 152.633 341.874 154.94C340.462 157.246 338.391 159.082 335.661 160.447C332.931 161.812 329.706 162.495 325.987 162.495Z" fill="black"/>
<path d="M349.799 142.23C349.799 138.182 350.552 134.628 352.058 131.568C353.612 128.509 355.707 126.155 358.343 124.508C360.979 122.86 363.921 122.036 367.169 122.036C369.946 122.036 372.37 122.601 374.441 123.731C376.56 124.861 378.184 126.343 379.313 128.179V122.601H391.387V162.001H379.313V156.423C378.136 158.258 376.489 159.741 374.371 160.871C372.3 162.001 369.875 162.565 367.098 162.565C363.897 162.565 360.979 161.742 358.343 160.094C355.707 158.4 353.612 156.022 352.058 152.963C350.552 149.856 349.799 146.278 349.799 142.23ZM379.313 142.301C379.313 139.288 378.466 136.911 376.771 135.169C375.124 133.428 373.1 132.557 370.699 132.557C368.298 132.557 366.251 133.428 364.556 135.169C362.909 136.864 362.085 139.218 362.085 142.23C362.085 145.243 362.909 147.644 364.556 149.432C366.251 151.174 368.298 152.045 370.699 152.045C373.1 152.045 375.124 151.174 376.771 149.432C378.466 147.691 379.313 145.313 379.313 142.301Z" fill="black"/>
<path d="M457.386 122.601L446.724 162.001H433.379L427.165 136.44L420.74 162.001H407.466L396.733 122.601H408.807L414.385 150.774L421.022 122.601H433.803L440.51 150.633L446.018 122.601H457.386Z" fill="black"/>
<path d="M469.552 118.506C467.434 118.506 465.692 117.894 464.327 116.67C463.009 115.399 462.35 113.846 462.35 112.01C462.35 110.127 463.009 108.574 464.327 107.35C465.692 106.079 467.434 105.443 469.552 105.443C471.624 105.443 473.318 106.079 474.636 107.35C476.001 108.574 476.684 110.127 476.684 112.01C476.684 113.846 476.001 115.399 474.636 116.67C473.318 117.894 471.624 118.506 469.552 118.506ZM475.554 122.601V162.001H463.48V122.601H475.554Z" fill="black"/>
<path d="M481.826 142.301C481.826 138.206 482.649 134.628 484.297 131.568C485.992 128.509 488.322 126.155 491.287 124.508C494.3 122.86 497.736 122.036 501.596 122.036C506.539 122.036 510.657 123.331 513.952 125.92C517.295 128.509 519.483 132.157 520.519 136.864H507.668C506.586 133.851 504.491 132.345 501.384 132.345C499.172 132.345 497.407 133.216 496.089 134.958C494.77 136.652 494.111 139.1 494.111 142.301C494.111 145.502 494.77 147.973 496.089 149.715C497.407 151.409 499.172 152.257 501.384 152.257C504.491 152.257 506.586 150.75 507.668 147.738H520.519C519.483 152.351 517.295 155.975 513.952 158.611C510.61 161.247 506.491 162.565 501.596 162.565C497.736 162.565 494.3 161.742 491.287 160.094C488.322 158.447 485.992 156.093 484.297 153.033C482.649 149.974 481.826 146.396 481.826 142.301Z" fill="black"/>
<path d="M551.761 162.001L539.758 145.478V162.001H527.684V109.75H539.758V138.629L551.69 122.601H566.589L550.208 142.371L566.73 162.001H551.761Z" fill="black"/>
<path d="M578.11 118.506C575.991 118.506 574.25 117.894 572.884 116.67C571.566 115.399 570.907 113.846 570.907 112.01C570.907 110.127 571.566 108.574 572.884 107.35C574.25 106.079 575.991 105.443 578.11 105.443C580.181 105.443 581.875 106.079 583.193 107.35C584.558 108.574 585.241 110.127 585.241 112.01C585.241 113.846 584.558 115.399 583.193 116.67C581.875 117.894 580.181 118.506 578.11 118.506ZM584.111 122.601V162.001H572.037V122.601H584.111Z" fill="black"/>
<g clip-path="url(#clip0_3_208)">
<path fill-rule="evenodd" clip-rule="evenodd" d="M227.766 171.16L144.798 27.8618L148.821 24.8926L231.789 168.191L227.766 171.16Z" fill="black"/>
<path fill-rule="evenodd" clip-rule="evenodd" d="M240.848 171.16L157.879 27.8618L161.902 24.8926L244.871 168.191L240.848 171.16Z" fill="black"/>
<path fill-rule="evenodd" clip-rule="evenodd" d="M253.929 171.16L170.96 27.8618L174.983 24.8926L257.952 168.191L253.929 171.16Z" fill="black"/>
<path fill-rule="evenodd" clip-rule="evenodd" d="M267.01 171.16L184.042 27.8618L188.065 24.8926L271.033 168.191L267.01 171.16Z" fill="black"/>
<path d="M210.476 64.6726L231.789 27.8618L227.766 24.8926L207.678 59.5882L210.476 64.6726Z" fill="black"/>
<path d="M189.32 101.212L186.41 96.3205L144.798 168.191L148.821 171.16L189.32 101.212Z" fill="black"/>
<path d="M193.04 107.464L195.95 112.355L161.902 171.16L157.879 168.191L193.04 107.464Z" fill="black"/>
<path d="M216.851 76.2558L214.053 71.1714L240.848 24.8926L244.871 27.8618L216.851 76.2558Z" fill="black"/>
<path d="M199.669 118.607L170.96 168.191L174.983 171.16L202.579 123.498L199.669 118.607Z" fill="black"/>
<path d="M223.226 87.839L220.427 82.7545L253.929 24.8926L257.952 27.8618L223.226 87.839Z" fill="black"/>
<path d="M206.299 129.749L184.042 168.191L188.065 171.16L209.209 134.641L206.299 129.749Z" fill="black"/>
<path d="M229.6 99.4222L226.802 94.3377L267.01 24.8926L271.033 27.8618L229.6 99.4222Z" fill="black"/>
</g>
<path fill-rule="evenodd" clip-rule="evenodd" d="M107.809 34H102.809V110.29C102.809 117.916 96.6268 124.098 89.0005 124.098C81.3737 124.098 75.1909 117.915 75.1909 110.289V34H70.1909V110.289C70.1909 120.677 78.6122 129.098 89.0005 129.098C99.3882 129.098 107.809 120.677 107.809 110.29V34Z" fill="black"/>
<path fill-rule="evenodd" clip-rule="evenodd" d="M119.674 34H114.674V109.683C114.674 123.865 103.177 135.362 88.9956 135.362C74.8134 135.362 63.3164 123.865 63.3164 109.683V34H58.3164V109.683C58.3164 126.626 72.0519 140.362 88.9956 140.362C105.939 140.362 119.674 126.627 119.674 109.683V34Z" fill="black"/>
<path fill-rule="evenodd" clip-rule="evenodd" d="M131.308 34H126.308V109.588C126.308 130.262 109.549 147.021 88.8753 147.021C87.5832 147.021 86.3064 146.956 85.048 146.828C66.172 144.911 51.442 128.97 51.442 109.588V34H46.442V109.588C46.442 133.023 65.44 152.021 88.8753 152.021C112.31 152.021 131.308 133.023 131.308 109.588V34Z" fill="black"/>
<path fill-rule="evenodd" clip-rule="evenodd" d="M143 34H138V109.687C138 136.749 116.062 158.687 89 158.687C61.938 158.687 40 136.749 40 109.687V34H35V109.687C35 139.511 59.1766 163.687 89 163.687C118.823 163.687 143 139.511 143 109.687V34Z" fill="black"/>
<defs>
<clipPath id="clip0_3_208">
<rect width="124" height="128" fill="white" transform="translate(147 34)"/>
</clipPath>
</defs>
</svg>
