<svg width="1189" height="354" viewBox="0 0 1189 354" fill="none" xmlns="http://www.w3.org/2000/svg">
<rect x="0.619873" y="0.767578" width="321.468" height="321.468" rx="96.8278" fill="#00A2FF"/>
<path fill-rule="evenodd" clip-rule="evenodd" d="M453.245 132.312V108.818L451.564 108.594C448.364 108.168 445.372 107.955 441.552 107.955C433.923 107.955 427.765 110.459 422.797 114.758C419.586 117.536 416.906 121.032 414.636 125.012V110.446H390.42V220.182H414.636V163.445C414.636 153.808 417.81 145.791 423.062 140.2C428.308 134.615 435.728 131.34 444.458 131.34C446.813 131.34 448.57 131.533 450.99 131.936L453.245 132.312ZM413.114 132.517C413.599 131.368 414.106 130.248 414.636 129.162C420.235 117.686 428.468 109.891 441.552 109.891C445.288 109.891 448.195 110.099 451.308 110.514V110.514C448.196 110.099 445.29 109.892 441.555 109.892C427.233 109.892 418.722 119.233 413.118 132.517H412.703V132.517H413.114ZM412.699 112.382V112.383H392.36V218.245H392.357V112.382H412.699ZM477.657 172.647H558.709L558.921 170.951C559.144 169.169 559.143 165.979 559.143 163.177V163.177V163.03C559.143 146.29 554.532 132.285 545.589 122.444C536.622 112.578 523.505 107.124 506.974 107.124C490.304 107.124 476.685 113.016 467.248 123.321C457.829 133.607 452.728 148.118 452.728 165.106C452.728 181.657 457.504 196.214 466.76 206.66C476.042 217.136 489.671 223.295 506.974 223.295C521.252 223.295 532.539 219.346 540.998 212.654C549.447 205.972 554.937 196.663 557.828 186.17L558.504 183.719H533.713L533.332 185.16C532.478 188.387 530.369 192.805 526.316 196.403C522.301 199.966 516.277 202.816 507.389 202.816C497.466 202.816 490.18 198.96 485.289 193.107C480.745 187.667 478.186 180.393 477.657 172.647ZM517.019 109.808C513.843 109.314 510.493 109.061 506.974 109.061C474.592 109.061 454.665 131.894 454.665 165.106C454.665 193.713 469.245 215.678 495.83 220.41C469.248 215.677 454.668 193.713 454.668 165.107C454.668 131.895 474.595 109.062 506.977 109.062C510.495 109.062 513.844 109.315 517.019 109.808ZM555.961 185.656C555.961 185.656 555.961 185.656 555.961 185.656H535.204C533.336 192.713 526.071 204.753 507.389 204.753C505.619 204.753 503.924 204.636 502.304 204.411C503.925 204.636 505.621 204.753 507.392 204.753C526.074 204.753 533.339 192.714 535.207 185.656H555.961ZM512.893 126.249C526.526 128.77 535.226 139.223 535.981 152.791C536.016 153.43 536.034 154.075 536.034 154.727H475.633C475.633 154.728 475.633 154.728 475.633 154.728H536.038C536.038 140.224 527.17 128.887 512.893 126.249ZM534.041 152.791H477.769C479.737 137.518 491.049 127.603 506.351 127.603C514.921 127.603 521.829 130.549 526.592 135.336C530.962 139.728 533.628 145.773 534.041 152.791ZM645.694 152.72H670.571L670.348 150.582C667.753 125.721 648.859 107.332 620.679 107.332C604.512 107.332 591.005 113.234 581.552 123.527C572.114 133.804 566.849 148.31 566.849 165.314C566.849 182.317 572.114 196.825 581.58 207.103C591.061 217.396 604.62 223.295 620.887 223.295C649.041 223.295 668.837 204.5 670.355 179.129L670.477 177.077H645.68L645.527 178.847C645.027 184.648 643.339 190.535 639.62 194.941C635.963 199.273 630.154 202.401 620.887 202.401C610.216 202.401 603.086 197.945 598.543 191.215C593.931 184.382 591.895 175.054 591.895 165.314C591.895 155.574 593.931 146.19 598.547 139.303C603.094 132.519 610.224 128.019 620.887 128.019C630.025 128.019 635.85 131.234 639.549 135.565C643.307 139.965 645.033 145.713 645.528 150.965L645.694 152.72ZM668.421 179.014H647.46C646.422 191.053 640.402 204.338 620.89 204.338C619.121 204.338 617.44 204.221 615.843 203.997C617.439 204.221 619.119 204.338 620.887 204.338C640.399 204.338 646.419 191.053 647.456 179.014H668.421C668.421 179.014 668.421 179.014 668.421 179.014ZM610.369 220.457C584.848 215.922 568.789 194.673 568.789 165.314C568.789 132.102 589.339 109.269 620.683 109.269C624.039 109.269 627.257 109.538 630.324 110.054C627.256 109.538 624.037 109.269 620.679 109.269C589.336 109.269 568.786 132.102 568.786 165.314C568.786 194.674 584.846 215.923 610.369 220.457ZM647.46 150.783C646.551 141.157 641.669 129.464 627.528 126.692C641.667 129.465 646.548 141.157 647.456 150.783H647.46ZM745.552 132.312V108.818L743.871 108.594C740.671 108.168 737.679 107.955 733.859 107.955C726.23 107.955 720.073 110.459 715.104 114.758C711.893 117.536 709.214 121.032 706.943 125.012V110.446H682.728V220.182H706.943V163.445C706.943 153.808 710.117 145.791 715.37 140.2C720.615 134.615 728.035 131.34 736.765 131.34C739.12 131.34 740.877 131.533 743.297 131.936L745.552 132.312ZM705.422 132.517C705.906 131.368 706.413 130.248 706.943 129.162C712.542 117.686 720.776 109.891 733.859 109.891C737.129 109.891 739.762 110.05 742.455 110.368C739.763 110.05 737.131 109.892 733.863 109.892C719.54 109.892 711.029 119.233 705.425 132.517H705.01V132.517H705.422ZM684.667 218.245V112.383H705.006V112.382H684.664V218.245H684.667ZM848.853 110.446H824.637V177.353C824.637 184.872 822.013 190.979 817.469 195.215C812.913 199.463 806.256 201.986 797.928 201.986C790.67 201.986 785.884 199.749 782.863 196.119C779.788 192.425 778.277 186.974 778.277 180.051V110.446H754.062V185.656C754.062 198.24 758.164 207.671 765.018 213.94C771.843 220.182 781.175 223.088 791.286 223.088C807.326 223.088 818.099 217.035 824.637 209.946V220.182H848.853V110.446ZM783.458 220.507C767.725 217.81 756.002 206.592 756.002 185.656V112.383H776.341V112.382H755.998V185.656C755.998 206.593 767.723 217.811 783.458 220.507ZM826.574 204.961V218.245H826.577V204.961H826.574ZM846.916 112.383V112.382H826.574V177.353C826.574 193.336 815.365 203.922 797.928 203.922C796.711 203.922 795.551 203.862 794.447 203.745C795.552 203.863 796.713 203.923 797.932 203.923C815.368 203.923 826.577 193.337 826.577 177.354V112.383H846.916ZM866.556 95.4295H893.47V69.5535H866.556V95.4295ZM867.801 220.182H892.017V110.446H867.801V220.182ZM962.594 219.833V199.538L960.321 199.94C956.869 200.549 955.325 200.74 951.939 200.74C947.628 200.74 945.442 200.088 944.177 198.717C942.855 197.285 942.044 194.553 942.044 188.977V131.132H962.386V110.446H942.044V76.4034H917.828V110.446H902.468V131.132H917.828V188.354C917.828 200.821 920.514 209.238 925.883 214.492C931.251 219.744 938.887 221.427 947.788 221.427C952.249 221.427 955.7 221.211 961.037 220.144L962.594 219.833ZM948.928 202.548C949.848 202.638 950.851 202.678 951.942 202.678C955.47 202.678 957.131 202.47 960.657 201.848V201.847C959.946 201.972 959.311 202.081 958.721 202.174C956.383 202.545 954.757 202.677 951.939 202.677C950.849 202.677 949.847 202.638 948.928 202.548ZM960.45 112.383H940.111V112.382H960.45V112.383ZM940.107 78.3405V78.34H919.765V112.382H904.404V129.196H904.408V112.383H919.768V78.3405H940.107ZM919.765 129.196H919.768V188.355C919.768 206.723 925.722 215.053 936.053 218.07C925.72 215.054 919.765 206.725 919.765 188.354V129.196ZM992.742 172.647H1073.79L1074.01 170.951C1074.23 169.17 1074.23 165.982 1074.23 163.18V163.178V163.03C1074.23 146.29 1069.62 132.285 1060.67 122.444C1051.71 112.578 1038.59 107.124 1022.06 107.124C1005.39 107.124 991.77 113.016 982.333 123.321C972.913 133.607 967.813 148.118 967.813 165.106C967.813 181.657 972.589 196.214 981.845 206.66C991.127 217.136 1004.76 223.295 1022.06 223.295C1036.34 223.295 1047.62 219.346 1056.08 212.654C1064.53 205.972 1070.02 196.663 1072.91 186.17L1073.59 183.719H1048.8L1048.42 185.16C1047.56 188.387 1045.45 192.805 1041.4 196.403C1037.39 199.966 1031.36 202.816 1022.47 202.816C1012.55 202.816 1005.26 198.96 1000.37 193.107C995.83 187.667 993.271 180.393 992.742 172.647ZM1025.03 109.123C1024.06 109.082 1023.06 109.061 1022.06 109.061C989.677 109.061 969.75 131.894 969.75 165.106C969.75 191.116 981.803 211.635 1003.97 218.703C981.805 211.634 969.753 191.115 969.753 165.107C969.753 131.895 989.68 109.062 1022.06 109.062C1023.07 109.062 1024.06 109.082 1025.03 109.123ZM1071.05 185.656C1071.05 185.656 1071.05 185.656 1071.05 185.656H1050.29C1048.42 192.713 1041.16 204.753 1022.47 204.753C1022.16 204.753 1021.85 204.749 1021.53 204.742C1021.85 204.749 1022.16 204.753 1022.48 204.753C1041.16 204.753 1048.42 192.714 1050.29 185.656H1071.05ZM1031.57 127.13C1043.13 130.696 1050.38 140.456 1051.07 152.791C1051.1 153.43 1051.12 154.075 1051.12 154.727H990.718C990.718 154.728 990.718 154.728 990.718 154.728H1051.12C1051.12 141.483 1043.73 130.88 1031.57 127.13ZM1049.13 152.791H992.854C994.822 137.518 1006.13 127.603 1021.44 127.603C1030.01 127.603 1036.91 130.549 1041.68 135.336C1046.05 139.728 1048.71 145.773 1049.13 152.791ZM1107.07 172.647H1188.12L1188.33 170.951C1188.56 169.17 1188.56 165.982 1188.56 163.18V163.178V163.03C1188.56 146.29 1183.95 132.285 1175 122.444C1166.04 112.578 1152.92 107.124 1136.39 107.124C1119.72 107.124 1106.1 113.016 1096.66 123.321C1087.24 133.607 1082.14 148.118 1082.14 165.106C1082.14 181.657 1086.92 196.214 1096.17 206.66C1105.46 217.136 1119.08 223.295 1136.39 223.295C1150.67 223.295 1161.95 219.346 1170.41 212.654C1178.86 205.972 1184.35 196.663 1187.24 186.17L1187.92 183.719H1163.13L1162.74 185.16C1161.89 188.387 1159.78 192.805 1155.73 196.403C1151.71 199.966 1145.69 202.816 1136.8 202.816C1126.88 202.816 1119.59 198.96 1114.7 193.107C1110.16 187.667 1107.6 180.393 1107.07 172.647ZM1139.36 109.123C1138.38 109.082 1137.39 109.061 1136.39 109.061C1104.01 109.061 1084.08 131.894 1084.08 165.106C1084.08 191.167 1096.18 211.716 1118.43 218.745C1096.18 211.715 1084.08 191.167 1084.08 165.107C1084.08 131.895 1104.01 109.062 1136.39 109.062C1137.39 109.062 1138.39 109.082 1139.36 109.123ZM1185.37 185.656C1185.37 185.656 1185.37 185.656 1185.37 185.656H1164.62C1162.75 192.713 1155.48 204.753 1136.8 204.753C1136.49 204.753 1136.17 204.749 1135.86 204.742C1136.17 204.749 1136.49 204.753 1136.81 204.753C1155.49 204.753 1162.75 192.714 1164.62 185.656H1185.37ZM1145.9 127.13C1157.46 130.696 1164.71 140.456 1165.39 152.791C1165.43 153.43 1165.45 154.075 1165.45 154.727H1105.05C1105.05 154.728 1105.05 154.728 1105.05 154.728H1165.45C1165.45 141.483 1158.06 130.879 1145.9 127.13ZM1163.45 152.791H1107.18C1109.15 137.518 1120.46 127.603 1135.76 127.603C1144.33 127.603 1151.24 130.549 1156.01 135.336C1160.38 139.728 1163.04 145.773 1163.45 152.791ZM891.533 71.4906V71.49H868.493V93.4929H868.496V71.4906H891.533ZM890.08 112.383V112.382H869.738V218.245H869.741V112.383H890.08Z" fill="#121317"/>
<path d="M275.048 175.827C275.067 182.666 273.661 189.435 270.918 195.704C268.176 201.973 264.158 207.604 259.118 212.242C258.797 212.54 258.374 212.706 257.934 212.706C257.495 212.706 257.072 212.54 256.75 212.242C252.99 208.689 248.611 205.851 243.828 203.869C240.914 202.744 236.178 202.05 236.178 197.953C236.178 197.107 236.419 196.278 236.873 195.562C236.941 195.479 237.004 195.391 237.061 195.3C240.93 189.585 243.467 183.079 244.486 176.258V176.202C244.75 174.415 244.917 172.616 244.984 170.811V170.755C244.797 165.972 242.761 161.448 239.303 158.13C235.845 154.812 231.234 152.959 226.437 152.959C221.639 152.959 217.028 154.812 213.571 158.13C210.113 161.448 208.077 165.972 207.89 170.755V170.811C207.952 172.616 208.119 174.416 208.388 176.202V176.258C209.397 183.081 211.935 189.59 215.812 195.3C215.863 195.393 215.923 195.481 215.991 195.562C216.449 196.276 216.691 197.106 216.686 197.953C216.686 201.928 212.382 202.463 209.535 203.579C209.284 203.684 209.062 203.848 208.887 204.056C208.712 204.265 208.59 204.512 208.53 204.777C208.47 205.042 208.475 205.317 208.543 205.58C208.612 205.843 208.742 206.086 208.924 206.288C210.089 207.629 211.217 208.998 212.269 210.385C215.509 214.63 218.276 219.213 220.521 224.055L220.577 224.158C220.631 224.254 220.675 224.354 220.709 224.458L220.765 224.664C220.78 224.78 220.78 224.896 220.765 225.011C220.765 225.402 220.631 225.781 220.385 226.085C220.138 226.388 219.795 226.599 219.412 226.68C219.302 226.69 219.192 226.69 219.083 226.68C218.863 226.681 218.645 226.636 218.443 226.549C218.241 226.462 218.059 226.334 217.908 226.174C207.918 215.57 196.866 207.141 182.741 203.016C182.413 202.911 182.098 202.77 181.801 202.594C181.594 202.482 181.397 202.36 181.209 202.238C177.929 200.025 177.403 195.853 179.16 192.478C181.726 187.593 184.799 183.233 186.895 178.058C192.224 164.876 195.569 148.516 186.632 136.055C184.348 132.831 181.443 130.093 178.086 128.002C174.729 125.912 170.987 124.51 167.081 123.88C163.174 123.249 159.18 123.403 155.334 124.331C151.487 125.26 147.865 126.944 144.679 129.286C142.108 131.177 139.853 133.462 137.997 136.055C129.06 148.516 132.358 164.876 137.743 178.058C139.83 183.233 142.903 187.593 145.469 192.478C147.235 195.862 146.709 199.978 143.42 202.238L142.837 202.594C142.54 202.769 142.225 202.91 141.897 203.016C127.8 207.141 116.72 215.57 106.74 226.174C106.587 226.334 106.404 226.462 106.2 226.549C105.996 226.636 105.777 226.681 105.555 226.68C105.446 226.69 105.336 226.69 105.226 226.68C104.844 226.597 104.502 226.386 104.256 226.083C104.01 225.78 103.875 225.402 103.873 225.011C103.863 224.896 103.863 224.78 103.873 224.664C103.889 224.594 103.911 224.525 103.939 224.458C103.966 224.353 104.007 224.252 104.061 224.158L104.118 224.055C106.366 219.213 109.136 214.629 112.378 210.385C113.431 208.979 114.549 207.573 115.715 206.288C116.018 205.957 116.177 205.519 116.157 205.071C116.138 204.624 115.942 204.201 115.611 203.897C115.461 203.763 115.29 203.656 115.104 203.579C112.284 202.416 107.952 201.882 107.952 197.953C107.952 197.107 108.193 196.278 108.647 195.562C108.715 195.479 108.778 195.391 108.835 195.3C112.704 189.585 115.241 183.079 116.26 176.258V176.202C116.526 174.416 116.689 172.616 116.748 170.811V170.755C116.561 165.972 114.526 161.448 111.068 158.13C107.61 154.812 102.999 152.959 98.2015 152.959C93.404 152.959 88.7929 154.812 85.3352 158.13C81.8774 161.448 79.8415 165.972 79.6546 170.755V170.811C79.7218 172.616 79.8881 174.415 80.1527 176.202V176.258C81.1659 183.08 83.7032 189.588 87.5771 195.3C87.6344 195.391 87.6971 195.479 87.7651 195.562C88.219 196.278 88.4602 197.107 88.4605 197.953C88.4605 202.05 83.7051 202.735 80.8106 203.869C76.023 205.842 71.642 208.681 67.8883 212.242C67.5651 212.541 67.1404 212.707 66.6995 212.707C66.2586 212.707 65.8339 212.541 65.5107 212.242C55.9531 203.391 50.2558 191.154 49.6426 178.159C49.0293 165.164 53.5489 152.447 62.2308 142.74C70.2186 133.811 81.2491 128.163 93.1783 126.895C93.48 126.859 93.767 126.745 94.0109 126.564C94.2548 126.383 94.4472 126.142 94.5692 125.864C110.734 87.9865 154.171 70.5479 191.584 86.9083C208.92 94.526 222.686 108.46 230.069 125.864C230.193 126.143 230.387 126.386 230.632 126.568C230.878 126.75 231.166 126.866 231.469 126.905C256.224 129.521 275.029 150.644 275.02 175.836" fill="white"/>
<path d="M910.666 321.296C910.666 323.493 910.325 325.076 909.641 326.045C908.956 327.014 907.899 327.498 906.468 327.498C905.037 327.498 904.078 327.03 903.393 326.094C902.709 325.158 902.368 323.782 902.368 321.971L902.368 302.971L921.103 302.971L923.263 290.852L902.364 290.852L902.364 279.141L887.131 285.351L887.131 290.857L879.162 290.857C879.162 296.069 882.482 300.501 887.131 302.21L887.131 322.264C887.131 326.143 887.865 329.439 889.328 332.153C890.792 334.868 892.923 336.919 895.723 338.31C898.523 339.698 902.004 340.394 906.173 340.394C910.342 340.394 913.609 339.617 916.573 338.066C919.533 336.516 921.828 334.334 923.456 331.522C925.083 328.71 925.899 325.435 925.899 321.683L925.899 309.767L910.666 309.767L910.666 321.296V321.296Z" fill="#121317"/>
<path d="M986.182 325.695C984.883 333.105 990.63 339.889 998.21 339.889L999.03 339.889L1010.29 275.608L994.959 275.608L986.182 325.695Z" fill="#121317"/>
<path d="M1011.38 325.695C1010.08 333.105 1015.82 339.889 1023.4 339.889L1024.22 339.889L1035.49 275.608L1020.15 275.608L1011.38 325.695Z" fill="#121317"/>
<path d="M1069.36 324.011C1068.97 325.109 1068.39 326.029 1067.61 326.774C1066.82 327.518 1065.91 328.084 1064.87 328.471C1063.83 328.857 1062.63 329.053 1061.26 329.053C1059.37 329.053 1057.79 328.764 1056.52 328.182C1055.25 327.6 1054.19 326.664 1053.35 325.37C1052.44 324.076 1051.82 322.59 1051.5 320.91C1051.17 319.229 1051.01 317.227 1051.01 314.899C1051.01 313.349 1051.06 311.928 1051.16 310.634C1051.26 309.344 1051.48 308.18 1051.84 307.143C1052.2 306.109 1052.67 305.206 1053.26 304.428C1054.17 303.204 1055.26 302.247 1056.53 301.568C1057.8 300.888 1059.28 300.55 1060.97 300.55C1063.9 300.55 1066.1 301.328 1067.56 302.878C1068.99 304.392 1069.78 306.597 1069.94 309.47L1060.29 309.47C1057.33 309.47 1054.79 311.578 1054.26 314.476L1053.49 318.777L1084.51 318.777L1084.51 314.801C1084.51 309.503 1083.58 304.949 1081.72 301.132C1079.87 297.319 1077.18 294.414 1073.67 292.407C1070.15 290.405 1065.92 289.404 1060.97 289.404C1058.17 289.404 1055.54 289.778 1053.06 290.519C1050.59 291.264 1048.34 292.33 1046.32 293.718C1044.31 295.109 1042.61 296.839 1041.24 298.902C1040.2 300.261 1039.34 301.779 1038.66 303.46C1037.97 305.141 1037.44 306.968 1037.05 308.937C1036.66 310.911 1036.46 312.929 1036.46 314.997C1036.46 318.293 1036.85 321.284 1037.63 323.962C1038.42 326.643 1039.52 329.02 1040.95 331.087C1042.38 333.089 1044.13 334.786 1046.18 336.178C1048.23 337.566 1050.54 338.62 1053.11 339.328C1055.68 340.04 1058.5 340.394 1061.56 340.394C1065.66 340.394 1069.32 339.698 1072.54 338.311C1075.77 336.923 1078.45 335.002 1080.6 332.544C1082.75 330.09 1084.08 327.246 1084.6 324.015L1084.6 323.917L1069.37 323.917L1069.37 324.015L1069.36 324.011Z" fill="#121317"/>
<path d="M1131.36 291.585C1128.82 290.132 1125.72 289.404 1122.08 289.404C1119.41 289.404 1117.05 289.921 1115 290.955C1112.95 291.988 1111.16 293.555 1109.63 295.655C1108.1 297.755 1106.88 300.392 1105.97 303.553L1104.01 303.553L1106.53 290.853L1092.4 290.853L1092.4 338.933L1107.73 338.933L1107.73 313.825C1107.73 311.627 1108.07 309.723 1108.75 308.107C1109.44 306.492 1110.45 305.267 1111.78 304.424C1113.11 303.586 1114.66 303.163 1116.41 303.163C1118.89 303.163 1120.74 303.875 1121.98 305.295C1123.22 306.715 1123.84 308.787 1123.84 311.501L1123.84 338.933L1138.87 338.933L1138.87 308.209C1138.87 304.139 1138.26 300.713 1137.02 297.934C1135.78 295.154 1133.9 293.038 1131.36 291.585" fill="#121317"/>
<path d="M1173.32 309.767L1173.32 321.296C1173.32 323.493 1172.98 325.076 1172.3 326.045C1171.61 327.014 1170.56 327.498 1169.13 327.498C1167.7 327.498 1166.74 327.03 1166.05 326.094C1165.37 325.158 1165.03 323.782 1165.03 321.976L1165.03 302.975L1183.76 302.975L1185.92 290.857L1165.03 290.857L1165.03 279.141L1149.79 285.351L1149.79 290.857L1141.82 290.857C1141.82 296.069 1145.14 300.497 1149.79 302.21L1149.79 322.264C1149.79 326.143 1150.53 329.439 1151.99 332.153C1153.45 334.868 1155.59 336.919 1158.39 338.31C1161.19 339.698 1164.67 340.394 1168.83 340.394C1173 340.394 1176.27 339.617 1179.23 338.066C1182.19 336.516 1184.49 334.334 1186.12 331.522C1187.75 328.71 1188.56 325.43 1188.56 321.683L1188.56 309.767L1173.33 309.767L1173.32 309.767Z" fill="#121317"/>
<path d="M964.974 324.011C964.585 325.109 963.999 326.029 963.22 326.774C962.437 327.518 961.527 328.084 960.485 328.471C959.444 328.857 958.239 329.053 956.874 329.053C954.984 329.053 953.406 328.764 952.135 328.182C950.864 327.6 949.807 326.664 948.962 325.37C948.052 324.076 947.433 322.59 947.109 320.91C946.781 319.229 946.621 317.227 946.621 314.899C946.621 313.349 946.671 311.928 946.769 310.634C946.867 309.344 947.093 308.18 947.454 307.143C947.81 306.109 948.282 305.206 948.868 304.428C949.778 303.204 950.868 302.247 952.139 301.568C953.41 300.888 954.89 300.55 956.583 300.55C959.514 300.55 961.711 301.328 963.175 302.878C964.605 304.392 965.397 306.597 965.552 309.47L955.902 309.47C952.939 309.47 950.401 311.578 949.876 314.476L949.102 318.777L980.117 318.777L980.117 314.801C980.117 309.503 979.191 304.949 977.334 301.132C975.481 297.319 972.796 294.414 969.279 292.407C965.765 290.405 961.531 289.404 956.587 289.404C953.787 289.404 951.151 289.778 948.675 290.519C946.203 291.264 943.953 292.33 941.94 293.718C939.923 295.109 938.23 296.839 936.861 298.902C935.82 300.261 934.955 301.779 934.274 303.46C933.589 305.141 933.052 306.968 932.663 308.937C932.274 310.911 932.077 312.929 932.077 314.997C932.077 318.293 932.466 321.284 933.249 323.962C934.032 326.643 935.139 329.02 936.57 331.087C938 333.089 939.743 334.786 941.792 336.178C943.842 337.566 946.154 338.62 948.728 339.328C951.299 340.04 954.115 340.394 957.173 340.394C961.273 340.394 964.933 339.698 968.16 338.311C971.382 336.923 974.067 335.002 976.215 332.544C978.363 330.09 979.695 327.246 980.22 324.015L980.22 323.917L964.987 323.917L964.987 324.015L964.974 324.011Z" fill="#121317"/>
<path d="M809.278 302.632C814.226 302.632 818.184 304.469 821.082 308.215C823.98 311.891 825.04 316.344 824.121 321.504C823.202 326.663 820.87 331.045 816.983 334.579C813.095 338.043 808.501 339.81 803.2 339.81C797.475 339.81 793.163 336.912 790.901 332.318L789.77 338.891H783.621L791.971 290.901H798.12L795.001 309.134C798.747 304.823 803.482 302.632 809.278 302.632ZM817.972 320.938C818.608 317.333 817.901 314.435 815.922 312.103C814.014 309.77 811.257 308.569 807.653 308.569C804.119 308.569 800.938 309.77 798.111 312.174C795.283 314.577 793.516 317.616 792.88 321.221C792.244 324.826 792.951 327.794 794.93 330.268C796.98 332.671 799.736 333.873 803.27 333.873C806.875 333.873 810.056 332.671 812.812 330.197C815.569 327.723 817.336 324.613 817.972 320.938Z" fill="#121317"/>
<path d="M841.616 331.47L856.883 303.551H863.739L842.747 341.082C838.011 349.564 832.074 353.522 824.935 353.027L825.925 347.302C830.378 347.655 833.346 345.323 836.386 340.234L837.446 338.538L828.399 303.551H834.619L841.616 331.47Z" fill="#121317"/>
</svg>
