<svg xmlns="http://www.w3.org/2000/svg" viewBox="0 0 16.59 15.74"><defs><style>.cls-1{fill:#535a65;}</style></defs><title>bem-star-ik-empty</title><g id="Layer_2" data-name="Layer 2"><g id="Layer_1-2" data-name="Layer 1"><path class="cls-1" d="M8.28,2.55,9.69,5.87l.24.56.6.05,3.61.3L11.39,9.15l-.45.4.13.59.82,3.51L8.8,11.78l-.52-.32-.52.32-3.1,1.87.82-3.51.14-.59-.46-.39L2.44,6.78,6,6.48l.6-.06.24-.55L8.28,2.55M8.28,0,6,5.48,0,6,4.51,9.91,3.15,15.74l5.13-3.11,5.13,3.11L12.05,9.91,16.59,6l-6-.5L8.28,0Z"/></g></g></svg>