<svg id="Layer_1" data-name="Layer 1" xmlns="http://www.w3.org/2000/svg" width="24" height="24" viewBox="0 0 24 24"><title>Artboard 1</title><path d="M12,23A11,11,0,1,1,23,12,11,11,0,0,1,12,23ZM12,3a9,9,0,1,0,9,9A9,9,0,0,0,12,3Z" style="fill:#2b2b2b"/><path d="M11.9,14a1,1,0,0,1-.9-.7,1,1,0,0,1,.6-1.3c.6-.2,2.3-1,2.3-2.1A2,2,0,0,0,12.6,8,2.08,2.08,0,0,0,10,9.2a1,1,0,0,1-1.3.6c-.5,0-.7-.6-.6-1.1a3.89,3.89,0,0,1,5.1-2.4,4.09,4.09,0,0,1,2.7,3.8c0,2.6-3.3,3.8-3.7,3.9Z" style="fill:#2b2b2b"/><path d="M12,18a1,1,0,0,1,0-2h0a1,1,0,0,1,0,2Z" style="fill:#2b2b2b"/></svg>