<svg xmlns="http://www.w3.org/2000/svg" viewBox="0 0 145.11 293.4"><defs><style>.cls-1{fill:#14100c;}</style></defs><g id="Layer_2" data-name="Layer 2"><g id="svg8"><path class="cls-1" d="M144.78,75.46h-.48V22.58A22.54,22.54,0,0,0,121.72,0H23.42A22.54,22.54,0,0,0,.84,22.58v24H.33A.33.33,0,0,0,0,47V57.51a.33.33,0,0,0,.33.33H.84V68H.33a.33.33,0,0,0-.33.33V89.28a.33.33,0,0,0,.33.33H.84v6.57H.33a.33.33,0,0,0-.33.33v20.94a.33.33,0,0,0,.33.33H.84v153A22.54,22.54,0,0,0,23.42,293.4h98.3a22.54,22.54,0,0,0,22.58-22.58V110h.48a.33.33,0,0,0,.33-.33V75.79A.33.33,0,0,0,144.78,75.46Zm-7.55,195.93a15.32,15.32,0,0,1-15.33,15.32H23.24A15.33,15.33,0,0,1,7.91,271.39V22A15.33,15.33,0,0,1,23.24,6.69H34.93c1.79,0,2.72.18,2.72,3s1.76,7.63,8.06,7.63H99.43c6.3,0,8.06-4.78,8.06-7.63s.93-3,2.72-3H121.9A15.32,15.32,0,0,1,137.23,22Z"/></g></g></svg>