<?xml version="1.0" encoding="utf-8"?>
<!-- Generator: Adobe Illustrator 23.0.6, SVG Export Plug-In . SVG Version: 6.00 Build 0)  -->
<svg version="1.1" id="Layer_1" xmlns="http://www.w3.org/2000/svg" xmlns:xlink="http://www.w3.org/1999/xlink" x="0px" y="0px"
	 viewBox="0 0 24 24" style="enable-background:new 0 0 24 24;" xml:space="preserve">
<style type="text/css">
	.st0{fill:none;stroke:#333333;stroke-width:2;stroke-linecap:round;stroke-linejoin:round;}
	.st1{fill:none;stroke:#333333;stroke-width:1.5;stroke-linecap:round;stroke-linejoin:round;stroke-miterlimit:10;}
</style>
<path class="st0" d="M4,3h16c1.1,0,2,0.9,2,2v10c0,1.1-0.9,2-2,2H4c-1.1,0-2-0.9-2-2V5C2,3.9,2.9,3,4,3z"/>
<line class="st0" x1="8" y1="21" x2="16" y2="21"/>
<line class="st0" x1="12" y1="17" x2="12" y2="21"/>
<polygon class="st1" points="12,6.9 13,8.9 15.2,9.3 13.6,10.9 14,13.1 12,12 10,13.1 10.4,10.9 8.8,9.3 11,8.9 "/>
</svg>
