<svg xmlns="http://www.w3.org/2000/svg" width="327" height="191" viewBox="0 0 327 191"><title>project-placeholder_1</title><g id="Layer_2" data-name="Layer 2"><g id="Layer_1-2" data-name="Layer 1"><rect x="0.5" y="0.5" width="326" height="190" style="fill:#fff;stroke:#fff;stroke-miterlimit:10"/><rect x="14" y="12.5" width="297" height="22.5" style="fill:#ededed"/><rect x="14" y="45" width="48" height="73" style="fill:#ededed"/><rect x="74" y="45" width="48" height="73" style="fill:#ededed"/><rect x="133" y="127" width="94" height="16" style="fill:#ededed"/><rect x="240" y="45" width="71" height="122" style="fill:#ededed"/><rect x="16" y="151" width="211" height="16" style="fill:#ededed"/><rect x="133.5" y="44.61" width="93.5" height="5.26" style="fill:#ededed"/><rect x="133.5" y="54.35" width="93.5" height="5.26" style="fill:#ededed"/><rect x="133.5" y="64.08" width="93.5" height="5.26" style="fill:#ededed"/><rect x="133.5" y="73.81" width="93.5" height="5.26" style="fill:#ededed"/><rect x="133.5" y="83.54" width="93.5" height="5.26" style="fill:#ededed"/><rect x="133.5" y="93.27" width="93.5" height="5.26" style="fill:#ededed"/><rect x="133.5" y="103.01" width="93.5" height="5.26" style="fill:#ededed"/><rect x="133.5" y="112.74" width="93.5" height="5.26" style="fill:#ededed"/><rect x="14.5" y="127" width="107.5" height="5.27" style="fill:#ededed"/><rect x="14.5" y="136.73" width="107.5" height="5.27" style="fill:#ededed"/></g></g></svg>